<svg xmlns="http://www.w3.org/2000/svg" version="1.1" xmlns:xlink="http://www.w3.org/1999/xlink" xmlns:svgjs="http://svgjs.dev/svgjs" width="1500" height="291" viewBox="0 0 1500 291"><g transform="matrix(1,0,0,1,-0.9090909090909918,-0.6383708896989617)"><svg viewBox="0 0 396 77" data-background-color="#000000" preserveAspectRatio="xMidYMid meet" height="291" width="1500" xmlns="http://www.w3.org/2000/svg" xmlns:xlink="http://www.w3.org/1999/xlink"><g id="tight-bounds" transform="matrix(1,0,0,1,0.2400000000000091,0.1689160086145023)"><svg viewBox="0 0 395.52 76.662167982771" height="76.662167982771" width="395.52"><g><svg viewBox="0 0 395.52 76.662167982771" height="76.662167982771" width="395.52"><g><svg viewBox="0 0 395.52 76.662167982771" height="76.662167982771" width="395.52"><g id="textblocktransform"><svg viewBox="0 0 395.52 76.662167982771" height="76.662167982771" width="395.52" id="textblock"><g><svg viewBox="0 0 395.52 76.662167982771" height="76.662167982771" width="395.52"><g transform="matrix(1,0,0,1,0,0)"><svg width="395.52" viewBox="1 -39 208.94 40.5" height="76.662167982771" data-palette-color="#ffffff"><path d="M21.75-14.8L21.75-14.8Q21.75-14.75 21.78-14.73 21.8-14.7 21.85-14.7L21.85-14.7 41.35-14.7 41.35 0 1 0Q1-3.1 1-6.2 1-9.3 1-12.43 1-15.55 1-18.65 1-21.75 1-24.85L1-24.85Q1-28 1-31.18 1-34.35 1-37.5L1-37.5 21.75-37.5Q21.75-34.65 21.75-31.83 21.75-29 21.75-26.15 21.75-23.3 21.75-20.48 21.75-17.65 21.75-14.8ZM70-39L70-39Q65.4-39 61.57-38.33 57.75-37.65 54.7-36.38 51.65-35.1 49.37-33.33 47.1-31.55 45.57-29.3 44.05-27.05 43.27-24.4 42.5-21.75 42.5-18.8L42.5-18.8Q42.5-16.55 42.97-14.35 43.45-12.15 44.47-10.15 45.5-8.15 47.07-6.38 48.65-4.6 50.82-3.15 53-1.7 55.85-0.68 58.7 0.35 62.22 0.93 65.75 1.5 70 1.5L70 1.5Q75.95 1.5 80.47 0.43 85-0.65 88.25-2.58 91.5-4.5 93.55-7.08 95.6-9.65 96.55-12.63 97.5-15.6 97.5-18.8L97.5-18.8Q97.5-24.7 94.45-29.25 91.4-33.8 85.3-36.4 79.2-39 70-39ZM70.05-23.1L70.05-23.1Q71.8-23.1 73-22.7 74.2-22.3 74.9-21.68 75.6-21.05 75.92-20.3 76.25-19.55 76.25-18.8L76.25-18.8Q76.25-18.15 76.05-17.53 75.85-16.9 75.37-16.32 74.9-15.75 74.17-15.33 73.45-14.9 72.42-14.65 71.4-14.4 70.05-14.4L70.05-14.4Q67.75-14.4 66.35-15.05 64.95-15.7 64.35-16.7 63.75-17.7 63.75-18.75L63.75-18.75Q63.75-19.55 64.07-20.33 64.4-21.1 65.12-21.73 65.85-22.35 67.07-22.73 68.3-23.1 70.05-23.1ZM126.05-39L126.05-39Q134.94-39 140.75-36.8 146.55-34.6 149.65-30.83 152.75-27.05 153.55-22.3L153.55-22.3 131.94-17.2Q132.5-19.1 132-20.5 131.5-21.9 130-22.7 128.5-23.5 126-23.5L126-23.5Q123.65-23.5 122.27-22.85 120.9-22.2 120.32-21.23 119.75-20.25 119.75-19.15L119.75-19.15Q119.75-18.35 120.09-17.63 120.45-16.9 121.2-16.3 121.95-15.7 123.15-15.35 124.34-15 126-15L126-15Q128.55-15 129.94-15.58 131.34-16.15 131.94-17.2L131.94-17.2Q131.15-14.25 130.34-11.25 129.55-8.25 128.72-5.23 127.9-2.2 127.09 0.75L127.09 0.75Q125.75 1 124.47 1.13 123.2 1.25 121.45 1.25L121.45 1.25Q117.65 1.25 114.47 0.55 111.3-0.15 108.75-1.43 106.2-2.7 104.27-4.5 102.34-6.3 101.07-8.53 99.8-10.75 99.15-13.33 98.5-15.9 98.5-18.7L98.5-18.7Q98.5-21 98.97-23.18 99.45-25.35 100.47-27.38 101.5-29.4 103.09-31.18 104.7-32.95 106.87-34.38 109.05-35.8 111.9-36.85 114.75-37.9 118.27-38.45 121.8-39 126.05-39ZM153.15 0L131.94 0Q131.94-2.9 131.94-5.75 131.94-8.6 131.94-11.48 131.94-14.35 131.94-17.2L131.94-17.2Q135.5-17.2 139.02-17.2 142.55-17.2 146.09-17.2 149.65-17.2 153.15-17.2L153.15-17.2 153.15 0ZM182.44-39L182.44-39Q177.84-39 174.02-38.33 170.19-37.65 167.14-36.38 164.09-35.1 161.82-33.33 159.54-31.55 158.02-29.3 156.49-27.05 155.72-24.4 154.94-21.75 154.94-18.8L154.94-18.8Q154.94-16.55 155.42-14.35 155.89-12.15 156.92-10.15 157.94-8.15 159.52-6.38 161.09-4.6 163.27-3.15 165.44-1.7 168.29-0.68 171.14 0.35 174.67 0.93 178.19 1.5 182.44 1.5L182.44 1.5Q188.39 1.5 192.92 0.43 197.44-0.65 200.69-2.58 203.94-4.5 205.99-7.08 208.04-9.65 208.99-12.63 209.94-15.6 209.94-18.8L209.94-18.8Q209.94-24.7 206.89-29.25 203.84-33.8 197.74-36.4 191.64-39 182.44-39ZM182.49-23.1L182.49-23.1Q184.24-23.1 185.44-22.7 186.64-22.3 187.34-21.68 188.04-21.05 188.37-20.3 188.69-19.55 188.69-18.8L188.69-18.8Q188.69-18.15 188.49-17.53 188.29-16.9 187.82-16.32 187.34-15.75 186.62-15.33 185.89-14.9 184.87-14.65 183.84-14.4 182.49-14.4L182.49-14.4Q180.19-14.4 178.79-15.05 177.39-15.7 176.79-16.7 176.19-17.7 176.19-18.75L176.19-18.75Q176.19-19.55 176.52-20.33 176.84-21.1 177.57-21.73 178.29-22.35 179.52-22.73 180.74-23.1 182.49-23.1Z" opacity="1" transform="matrix(1,0,0,1,0,0)" fill="#ffffff" class="wordmark-text-0" data-fill-palette-color="primary" id="text-0"></path></svg></g></svg></g></svg></g></svg></g><g></g></svg></g><defs></defs></svg><rect width="395.52" height="76.662167982771" fill="none" stroke="none" visibility="hidden"></rect></g></svg></g></svg>